<svg xmlns="http://www.w3.org/2000/svg" viewBox="0 0 94.21 30"><g id="Layer_2" data-name="Layer 2"><g id="_ëîé_1" data-name="—ëîé_1"><path d="M83.7,2.88C70.88-.55,52.94,12.66,50.9,14.2c-1.09-.6-2.18-1.2-3.26-1.82C38.51,7.21,27.39-.59,16.36,0,6.68.58-1.72,7.52.31,18c1.94,10,13,14.6,21.58,10.58a19.39,19.39,0,0,0,8.89-.07c7.22-1.95,13.38-7,19.44-11.42,2.16,1.1,5.53,2.73,9.77,4.43,12.21,4.92,20.05,8,26.8,4.73,1.31-.63,5.49-2.87,6.94-7.54,1.85-6-2.24-11.11-2.43-11.33A14,14,0,0,0,83.7,2.88Zm-61.48,16a.91.91,0,0,0,.8-.13c.29-.27.18-.76.18-1.11a3.17,3.17,0,0,1,2.4-2.94,2.8,2.8,0,0,1,2.49,1.47c.93,1.59.05,3.56-.47,4.73a11.8,11.8,0,0,1-5,5.3,13.36,13.36,0,0,1-3.6-1.54A6.9,6.9,0,0,1,15.79,21c-.1-.37-.77-2.67.64-4A3.39,3.39,0,0,1,20.66,17C21.38,17.62,21.37,18.7,22.22,18.9Zm21.32.53c-4.59,3-10,6.73-15.6,7.26a14.43,14.43,0,0,1-3,0l.1-.08c3.1-2.53,7.79-9.6,3.61-13.14-3.21-2.73-5.92-.68-7,2.24a4.61,4.61,0,0,0-4.58-1.34,5.69,5.69,0,0,0-3.88,7.15,9.22,9.22,0,0,0,5.37,5.94A13.1,13.1,0,0,1,6.38,22.75a11.92,11.92,0,0,1-2.53-10.4c1.2-5.07,5.41-7.6,10.23-8.46,7.77-1.39,15,2.35,21.77,5.72C40,11.71,44.16,14,48.32,16.1,46.75,17.25,45.16,18.37,43.54,19.43Zm42.27,3.86c-5,3-11.21.85-20.18-2.32A95.76,95.76,0,0,1,52.8,15.21l.93-.64c7.13-4.82,16-9.89,24.85-9.71,4.94.1,11.73,3.83,12.49,9C91.62,17.49,88.94,21.41,85.81,23.29Z"/></g></g></svg>