<svg xmlns="http://www.w3.org/2000/svg" viewBox="0 0 50.3 50.3"><defs><style>.cls-1{fill:none;stroke:#000;stroke-miterlimit:10;stroke-width:0.25px;}</style></defs><g id="Layer_2" data-name="Layer 2"><g id="Layer_1-2" data-name="Layer 1"><path d="M27.8,13.6h-.3l-.8.2-1.6.4L22,15.4A6.5,6.5,0,0,1,24.1,17a3.9,3.9,0,0,1,.5,3.3,9.8,9.8,0,0,1-4.1,5.1C16.2,28.4,9,31,3.7,30.8,1,30.7,0,29.4,1.9,27.1a25.4,25.4,0,0,1,5.6-4.7A47.5,47.5,0,0,1,16,17.6c1.8-.8,3.6-1.6,5.4-2.2a30.5,30.5,0,0,0-7.8-2.3l-3.2-.6c-.7-.2-2.3-.5-2.6-1.3V11c0-1.1,1.1-2.2,1.9-2.9a22.7,22.7,0,0,1,5.5-3.6,39.9,39.9,0,0,1,6-2.5,6.7,6.7,0,0,1,2.4-.4c.8.1.9.7.6,1.4a10,10,0,0,1-.8,1.4,1.8,1.8,0,0,0-.5.7h-.3c0-.1-.1-.2,0-.2l.2-.7H23v.2l.5-.7a3,3,0,0,0,.6-1.1c.2-1.3-2.3-.5-3-.3C17.8,3.3,10.2,7,8.3,10.1A1.6,1.6,0,0,0,8,11c0,.4.6.7.9.8l1.5.5a77,77,0,0,1,9.5,2.2l1.8.7L25.1,14a12.2,12.2,0,0,1,2.7-.6C28,13.3,28.1,13.5,27.8,13.6Zm-6.2,1.9a67.9,67.9,0,0,0-11.3,5.2C8.5,21.9,6.7,23.1,5,24.4a26.8,26.8,0,0,0-3,2.8c-1.7,2.2-.8,3.3,1.7,3.4,5.8.3,17-3.6,20-8.9C25.3,18.7,24,16.7,21.6,15.5Z"/><path d="M32,13.8h-.1l-1.5.5a1.4,1.4,0,0,1-.2.7,3.1,3.1,0,0,1-1.1,1.6c-.2.1-.4-.1-.4-.3a2.6,2.6,0,0,1,.9-1.6l.5-.4a1.9,1.9,0,0,0-.1-.8c-.3-.5-.8.1-1.1.4a9.2,9.2,0,0,0-.9,2.3h0c-.1,1-.1,2-.1,3v2.5c0,.1,0,.1-.1.1a.1.1,0,0,1-.1-.1,39.7,39.7,0,0,1,.1-7.7l.3-2.5a.2.2,0,0,1,.2-.2v.4c0,.1,0,.2-.1.2s-.3,2.3-.4,3.4h.1a10.1,10.1,0,0,1,.7-1.5c.2-.4.7-1,1.2-.6a.9.9,0,0,1,.5.9,3.4,3.4,0,0,1,1.4-.5Zm-2,.9a4,4,0,0,0-1,1.2c0,.1-.2.4-.1.6H29A3.4,3.4,0,0,0,30,14.7Z"/><path d="M38.5,13.7a.1.1,0,0,1,.1.1h-.1l-1.1.2c-1.2.3-1.4,1.6-1.5,2.7h-.2a11.3,11.3,0,0,1,0-2.6v-.3c-.5.7-1.2,1.5-1.9,1.6s-.9-.5-1-1-.8,1.1-1.3,1.1-.4-.9-.2-1.3a2.2,2.2,0,0,1,1.8-1.1l.2.2c0,.1-.1.2-.3.2a1.8,1.8,0,0,0-1.4.9,1.1,1.1,0,0,0-.1.8h.2c.5-.1.9-.8,1.2-1.3h.2a.9.9,0,0,0-.1.5c.4,1.3,1.6.3,2.1-.3l.7-.9h0a.2.2,0,0,1,.3-.1c.1,0,.1.1.1.3a6.5,6.5,0,0,0-.4,2,3,3,0,0,1,.4-1,2.5,2.5,0,0,1,2.2-.8Z"/><path d="M41.5,13.7c.1,0,.2,0,.2.1h-.1l-1.1.2c-1.2.3-1.4,1.6-1.5,2.7h-.2a5.4,5.4,0,0,1,0-1.8,11.1,11.1,0,0,1,.2-1.7h.4v.3h0c0,.1-.1.1-.2.1a9.9,9.9,0,0,0-.2,1.7,1.8,1.8,0,0,1,1.4-1.6,2.3,2.3,0,0,1,1.1-.2Z"/><path d="M43.2,15.1c-.2.5-.7.9-1.2.4a1.5,1.5,0,0,1,.4-2.1c.2-.1.5-.1.6.1h0c.1,0,.2.2.2.3A2.1,2.1,0,0,1,43.2,15.1Zm-.3-1.3h-.4a.6.6,0,0,0-.3.6,2,2,0,0,0,0,1.1c.4.5.9-.2.9-.6A1.5,1.5,0,0,0,42.9,13.8Z"/><path d="M47.7,14.5a3.9,3.9,0,0,1-.7,1.6c-.4.6-1.2.9-1.5.1a2.9,2.9,0,0,1-.2-.9c-.2.7-.5,1.3-1,1.3s-.6-1-.5-1.6a5.2,5.2,0,0,1,.6-1.6h.2c.1,0,.1.1.1.2h0c0,.1,0,.2-.1.2a5.2,5.2,0,0,0-.6,1.3c0,.3-.1.5-.1.8s.2.5.4.5.4-.3.5-.5a3.8,3.8,0,0,0,.5-1.5h0c0-.1,0-.2.1-.2a.2.2,0,0,1,.2.2c.1.5-.1,2,.5,2.1s.8-.5,1-.8a3.1,3.1,0,0,0,.2-2.8,1.6,1.6,0,0,0-.4-.7V12h.2a6.1,6.1,0,0,1,.5,1.2A2,2,0,0,1,47.7,14.5Z"/><path d="M44.1,26.9A10.4,10.4,0,0,1,42,31.7a26.2,26.2,0,0,1-6.6,5.8,13.7,13.7,0,0,1-2,1.3,86.4,86.4,0,0,0,.4,8.8c0,.1,0,.1-.1.1h0c-.1,0-.1,0-.1-.1a84.4,84.4,0,0,1-.4-8.7l-.3.2a.1.1,0,0,1-.1-.1h0l.4-.2A67.5,67.5,0,0,1,34.4,26c0-.1.1-.2.2-.1s.1,0,.1.1v.6h-.1a.1.1,0,0,1-.1.1c-.3,1.5-.5,3.1-.7,4.6a57.8,57.8,0,0,0-.5,7.1l1.9-1.1a23.2,23.2,0,0,0,7.2-7.1,10.5,10.5,0,0,0,1.4-4.1,11.8,11.8,0,0,0-.3-2.7,4.5,4.5,0,0,0-2.9-3.2c-3.2-.9-6.8,1-9,3.4a10.8,10.8,0,0,0-2.1,10.9.4.4,0,0,1-.1.3c-.1,0-.2,0-.2-.1a11.7,11.7,0,0,1,.6-8.8,12.1,12.1,0,0,1,6.5-5.7,8.2,8.2,0,0,1,4.4-.2C43.7,21,44.5,24.1,44.1,26.9Z"/><path d="M44.2,35.7a3,3,0,0,1-.8.8c-.2.2-.4.5-.7.6s-.8-.4-.8-.8v-.5c0-.3,0-.4-.3-.4s-.3.2-.4.4a14.2,14.2,0,0,0-.8,1.8l-.3.9a.1.1,0,0,1-.2,0,12.3,12.3,0,0,1-.2-1.9,18.4,18.4,0,0,1,.3-3.3,18.9,18.9,0,0,1,.5-2.3h.1a.1.1,0,0,1,.1-.1c.1,0,.2,0,.2.1v.3c.1.1,0,.1,0,.1a.1.1,0,0,1-.1.1,10.6,10.6,0,0,0-.4,1.9,12.4,12.4,0,0,0-.3,2.7c0,.6-.1,1.2-.1,1.8l.6-1.3a3.6,3.6,0,0,1,.4-.9l.3-.4c.2-.1.3-.2.5-.1a.3.3,0,0,1,.3.3.7.7,0,0,1,.1.5c0,.3,0,.8.4.8s.2,0,.3-.1A5.7,5.7,0,0,0,44,35.6C44.1,35.5,44.3,35.6,44.2,35.7Z"/><path d="M44.2,37a.4.4,0,0,1-.1.3h-.2c-.1-.1-.1-.2,0-.2a.2.2,0,0,1,.2-.2A.3.3,0,0,1,44.2,37Z"/><path d="M45.4,37c.1.1,0,.2,0,.3h-.3V37a.2.2,0,0,1,.2-.2A.3.3,0,0,1,45.4,37Z"/><path d="M46.7,37a.4.4,0,0,1-.1.3h-.2a.3.3,0,0,1-.1-.2l.3-.2A.3.3,0,0,0,46.7,37Z"/><path d="M47.9,37a.4.4,0,0,1-.1.3h-.2c-.1-.1-.1-.2,0-.2a.2.2,0,0,1,.2-.2A.3.3,0,0,1,47.9,37Z"/><polyline class="cls-1" points="50.1 21.8 50.1 0.1 25.8 0.1"/><polyline class="cls-1" points="48.6 18.8 48.6 1.4 29.1 1.4"/><polyline class="cls-1" points="0.1 28.4 0.1 50.1 24.4 50.1"/><polyline class="cls-1" points="1.6 31.4 1.6 48.9 21.1 48.9"/></g></g></svg>